:FULLY-SPECIFIED
:FORCE-ALL-JOINTS-BE-3DOF
:DEGREES
2242
root -0.73289 13.7945 -16.6432 911.846 -26.0697 168.653
lfemur 10.8334 -1.34765 -15.3687
ltibia 31.9972 0 0
lfoot -23.4245 36.8374 0
ltoes -44.5031 0 0
rfemur -72.152 -23.669 9.09104
rtibia 73.6407 0 0
rfoot -6.84769 13.9896 0
rtoes 3.28288 0 0
lowerback 8.88879 1.99369 -13.3354
upperback -3.11253 0.682486 -2.03264
thorax -8.59939 0.904472 5.18751
lowerneck 0.884845 -11.9945 -12.4221
upperneck 5.34147 -16.7438 10.3546
head 3.3595 -8.4128 4.36617
lclavicle -3.23957e-14 -3.75703e-14 0
lhumerus -69.6562 -17.6718 103.977
lradius 102.083 0 0
lwrist 60.8873 0 0
lhand -11.7385 422.074 0
lfingers 7.12502 0 0
lthumb 14.309 -451.561 0
rclavicle -3.23957e-14 -3.75703e-14 0
rhumerus 48.8974 -9.75633 -58.7764
rradius 17.0658 0 0
rwrist 34.2483 0 0
rhand -19.8962 -402.625 0
rfingers 7.12502 0 0
rthumb 6.44003 287.493 0
2243
root -0.738182 13.7923 -16.6567 911.9 -26.0697 168.639
lfemur 11.0169 -1.29508 -15.4207
ltibia 31.7453 0 0
lfoot -23.4126 36.8322 0
ltoes -44.552 0 0
rfemur -72.4289 -23.6639 9.16682
rtibia 73.7991 0 0
rfoot -6.88094 14.0027 0
rtoes 3.38409 0 0
lowerback 8.81033 1.97232 -13.3602
upperback -3.10084 0.661298 -2.0561
thorax -8.53695 0.889746 5.18074
lowerneck 0.881237 -12.0232 -12.3823
upperneck 5.25579 -16.7757 10.3854
head 3.33741 -8.42669 4.36928
lclavicle 4.19249e-14 -7.34509e-14 0
lhumerus -69.6068 -17.7133 103.978
lradius 101.992 0 0
lwrist 60.9427 0 0
lhand -11.6885 421.83 0
lfingers 7.12502 0 0
lthumb 14.3572 -451.313 0
rclavicle 4.19249e-14 -7.34509e-14 0
rhumerus 48.8771 -9.66592 -58.6684
rradius 17.1124 0 0
rwrist 34.0632 0 0
rhand -19.9728 -402.599 0
rfingers 7.12502 0 0
rthumb 6.36605 287.517 0
2244
root -0.745801 13.7866 -16.6712 911.828 -25.9678 168.714
lfemur 11.1988 -1.24299 -15.4723
ltibia 31.5206 0 0
lfoot -23.3965 36.8252 0
ltoes -44.6168 0 0
rfemur -72.6782 -23.6593 9.23507
rtibia 73.9647 0 0
rfoot -6.92162 14.0188 0
rtoes 3.49088 0 0
lowerback 8.77237 1.9861 -13.3246
upperback -3.06658 0.693873 -2.06068
thorax -8.48138 0.899008 5.15182
lowerneck 0.817096 -12.0534 -12.2905
upperneck 5.19321 -16.7955 10.3189
head 3.31793 -8.43312 4.33317
lclavicle 1.30701e-14 6.41081e-14 0
lhumerus -69.5768 -17.7524 103.964
lradius 101.97 0 0
lwrist 60.9675 0 0
lhand -11.6371 421.764 0
lfingers 7.12502 0 0
lthumb 14.4067 -451.244 0
rclavicle 1.30701e-14 6.41081e-14 0
rhumerus 48.9571 -9.72958 -58.8448
rradius 17.0609 0 0
rwrist 34.237 0 0
rhand -20.031 -402.544 0
rfingers 7.12502 0 0
rthumb 6.30988 287.57 0
2245
root -0.751427 13.7849 -16.6824 911.821 -25.9564 168.756
lfemur 11.3757 -1.19233 -15.5225
ltibia 31.3274 0 0
lfoot -23.3766 36.8164 0
ltoes -44.6953 0 0
rfemur -72.8946 -23.6553 9.29429
rtibia 74.1351 0 0
rfoot -6.96879 14.0374 0
rtoes 3.60141 0 0
lowerback 8.75177 1.98223 -13.2884
upperback -3.05347 0.696837 -2.07223
thorax -8.45378 0.895961 5.11932
lowerneck 0.827318 -12.0863 -12.2726
upperneck 5.09905 -16.8326 10.3406
head 3.29266 -8.45041 4.33738
lclavicle 3.18552e-14 3.15074e-14 0
lhumerus -69.5502 -17.8291 103.978
lradius 101.92 0 0
lwrist 60.974 0 0
lhand -11.4733 421.487 0
lfingers 7.12502 0 0
lthumb 14.5646 -450.956 0
rclavicle 3.18552e-14 3.15074e-14 0
rhumerus 49.0162 -9.79698 -58.9419
rradius 17.0006 0 0
rwrist 34.383 0 0
rhand -19.9876 -402.608 0
rfingers 7.12502 0 0
rthumb 6.35176 287.508 0
